<?xml version="1.0" encoding="UTF-8" standalone="no"?>
<svg
   xmlns:dc="http://purl.org/dc/elements/1.1/"
   xmlns:cc="http://creativecommons.org/ns#"
   xmlns:rdf="http://www.w3.org/1999/02/22-rdf-syntax-ns#"
   xmlns:svg="http://www.w3.org/2000/svg"
   xmlns="http://www.w3.org/2000/svg"
   xmlns:sodipodi="http://sodipodi.sourceforge.net/DTD/sodipodi-0.dtd"
   xmlns:inkscape="http://www.inkscape.org/namespaces/inkscape"
   inkscape:version="1.0 (4035a4fb49, 2020-05-01)"
   sodipodi:docname="drawing2.svg"
   id="svg8"
   version="1.1"
   viewBox="0 0 58.208332 58.208335"
   height="220"
   width="220">
  <defs
     id="defs2" />
  <sodipodi:namedview
     inkscape:window-maximized="1"
     inkscape:window-y="-8"
     inkscape:window-x="1912"
     inkscape:window-height="1017"
     inkscape:window-width="1920"
     inkscape:snap-grids="true"
     units="px"
     showgrid="false"
     inkscape:document-rotation="0"
     inkscape:current-layer="layer1"
     inkscape:document-units="mm"
     inkscape:cy="105.21325"
     inkscape:cx="132.44243"
     inkscape:zoom="1.979899"
     inkscape:pageshadow="2"
     inkscape:pageopacity="0.0"
     borderopacity="1.0"
     bordercolor="#666666"
     pagecolor="#ffffff"
     id="base" />
  <metadata
     id="metadata5">
    <rdf:RDF>
      <cc:Work
         rdf:about="">
        <dc:format>image/svg+xml</dc:format>
        <dc:type
           rdf:resource="http://purl.org/dc/dcmitype/StillImage" />
        <dc:title></dc:title>
      </cc:Work>
    </rdf:RDF>
  </metadata>
  <g
     id="layer1"
     inkscape:groupmode="layer"
     inkscape:label="Layer 1">
    <rect
       y="1.5161652e-07"
       x="2.2018484e-07"
       height="58.208332"
       width="58.208332"
       id="rect835"
       style="fill:#e48f57;stroke-width:0.354868;stroke-miterlimit:2.2;paint-order:markers fill stroke;fill-opacity:1" />
    <g
       transform="matrix(1.0432987,0,0,1.0432987,-54.65143,7.615456)"
       id="g879">
      <path
         id="path841"
         style="fill:#ff8e43;fill-opacity:1;stroke:none;stroke-width:1.14118;stroke-miterlimit:2.2;stroke-opacity:1;paint-order:markers fill stroke"
         d="m 342.52539,137.55859 a 42.678569,42.678569 0 0 0 -0.30273,-0.375 42.678569,42.678569 0 0 0 -0.34961,-0.42382 42.678569,42.678569 0 0 0 -0.35547,-0.41993 42.678569,42.678569 0 0 0 -0.35938,-0.41406 42.678569,42.678569 0 0 0 -0.36523,-0.41016 42.678569,42.678569 0 0 0 -0.37109,-0.40624 42.678569,42.678569 0 0 0 -0.37696,-0.4004 42.678569,42.678569 0 0 0 -0.38086,-0.39648 42.678569,42.678569 0 0 0 -0.38476,-0.39062 42.678569,42.678569 0 0 0 -0.39063,-0.38477 42.678569,42.678569 0 0 0 -0.39648,-0.38086 42.678569,42.678569 0 0 0 -0.40039,-0.37695 42.678569,42.678569 0 0 0 -0.40625,-0.36914 42.678569,42.678569 0 0 0 -0.41016,-0.36524 42.678569,42.678569 0 0 0 -0.41601,-0.36133 42.678569,42.678569 0 0 0 -0.41993,-0.35351 42.678569,42.678569 0 0 0 -0.42383,-0.34961 42.678569,42.678569 0 0 0 -0.42773,-0.34375 42.678569,42.678569 0 0 0 -0.43359,-0.33789 42.678569,42.678569 0 0 0 -0.4375,-0.33203 42.678569,42.678569 0 0 0 -0.44141,-0.32618 42.678569,42.678569 0 0 0 -0.44531,-0.32226 42.678569,42.678569 0 0 0 -0.44922,-0.31445 42.678569,42.678569 0 0 0 -0.45508,-0.31055 42.678569,42.678569 0 0 0 -0.45703,-0.30274 42.678569,42.678569 0 0 0 -0.46289,-0.29882 42.678569,42.678569 0 0 0 -0.46484,-0.29102 42.678569,42.678569 0 0 0 -0.46875,-0.28516 42.678569,42.678569 0 0 0 -0.47266,-0.28124 42.678569,42.678569 0 0 0 -0.47656,-0.27344 42.678569,42.678569 0 0 0 -0.48047,-0.26758 42.678569,42.678569 0 0 0 -0.48242,-0.25977 42.678569,42.678569 0 0 0 -0.48633,-0.25586 42.678569,42.678569 0 0 0 -0.49024,-0.24804 42.678569,42.678569 0 0 0 -0.49218,-0.24219 42.678569,42.678569 0 0 0 -0.4961,-0.23633 42.678569,42.678569 0 0 0 -0.5,-0.23047 42.678569,42.678569 0 0 0 -0.50195,-0.22265 42.678569,42.678569 0 0 0 -0.50391,-0.2168 42.678569,42.678569 0 0 0 -0.50781,-0.21094 42.678569,42.678569 0 0 0 -0.51172,-0.20312 42.678569,42.678569 0 0 0 -0.51172,-0.19727 42.678569,42.678569 0 0 0 -0.51562,-0.18945 42.678569,42.678569 0 0 0 -0.51758,-0.18359 42.678569,42.678569 0 0 0 -0.51953,-0.17774 42.678569,42.678569 0 0 0 -0.52344,-0.16992 42.678569,42.678569 0 0 0 -0.52344,-0.16406 42.678569,42.678569 0 0 0 -0.52734,-0.15625 42.678569,42.678569 0 0 0 -0.52734,-0.15039 42.678569,42.678569 0 0 0 -0.53125,-0.14258 42.678569,42.678569 0 0 0 -0.53125,-0.13672 42.678569,42.678569 0 0 0 -0.53516,-0.13086 42.678569,42.678569 0 0 0 -0.53516,-0.12305 42.678569,42.678569 0 0 0 -0.53711,-0.11523 42.678569,42.678569 0 0 0 -0.5371,-0.10938 42.678569,42.678569 0 0 0 -0.54102,-0.10156 42.678569,42.678569 0 0 0 -0.54102,-0.0937 42.678569,42.678569 0 0 0 -0.54101,-0.0879 42.678569,42.678569 0 0 0 -0.54492,-0.082 42.678569,42.678569 0 0 0 -0.54297,-0.0742 42.678569,42.678569 0 0 0 -0.54492,-0.0664 42.678569,42.678569 0 0 0 -0.54688,-0.0605 42.678569,42.678569 0 0 0 -0.54687,-0.0527 42.678569,42.678569 0 0 0 -0.54688,-0.0449 42.678569,42.678569 0 0 0 -0.54883,-0.0391 42.678569,42.678569 0 0 0 -0.54883,-0.0332 42.678569,42.678569 0 0 0 -0.54882,-0.0234 42.678569,42.678569 0 0 0 -0.54883,-0.0176 42.678569,42.678569 0 0 0 -0.54883,-0.0117 42.678569,42.678569 0 0 0 -0.54883,-0.004 42.678569,42.678569 0 0 0 -0.0195,0 42.678569,42.678569 0 0 0 -0.54883,0.004 42.678569,42.678569 0 0 0 -0.54883,0.0117 42.678569,42.678569 0 0 0 -0.54882,0.0176 42.678569,42.678569 0 0 0 -0.54883,0.0254 42.678569,42.678569 0 0 0 -0.54883,0.0312 42.678569,42.678569 0 0 0 -0.54883,0.0391 42.678569,42.678569 0 0 0 -0.54687,0.0469 42.678569,42.678569 0 0 0 -0.54688,0.0527 42.678569,42.678569 0 0 0 -0.54492,0.0606 42.678569,42.678569 0 0 0 -0.54687,0.0664 42.678569,42.678569 0 0 0 -0.54297,0.0742 42.678569,42.678569 0 0 0 -0.54297,0.082 42.678569,42.678569 0 0 0 -0.54297,0.0879 42.678569,42.678569 0 0 0 -0.54102,0.0957 42.678569,42.678569 0 0 0 -0.53906,0.10156 42.678569,42.678569 0 0 0 -0.53906,0.10937 42.678569,42.678569 0 0 0 -0.53711,0.11719 42.678569,42.678569 0 0 0 -0.53516,0.12305 42.678569,42.678569 0 0 0 -0.5332,0.1289 42.678569,42.678569 0 0 0 -0.5332,0.13672 42.678569,42.678569 0 0 0 -0.5293,0.14258 42.678569,42.678569 0 0 0 -0.5293,0.15039 42.678569,42.678569 0 0 0 -0.52539,0.15821 42.678569,42.678569 0 0 0 -0.52539,0.16406 42.678569,42.678569 0 0 0 -0.52148,0.16992 42.678569,42.678569 0 0 0 -0.51953,0.17773 42.678569,42.678569 0 0 0 -0.51758,0.1836 42.678569,42.678569 0 0 0 -0.51563,0.1914 42.678569,42.678569 0 0 0 -0.51367,0.19727 42.678569,42.678569 0 0 0 -0.50977,0.20312 42.678569,42.678569 0 0 0 -0.50781,0.21094 42.678569,42.678569 0 0 0 -0.5039,0.2168 42.678569,42.678569 0 0 0 -0.50196,0.22266 42.678569,42.678569 0 0 0 -0.5,0.23046 42.678569,42.678569 0 0 0 -0.49609,0.23633 42.678569,42.678569 0 0 0 -0.49219,0.24219 42.678569,42.678569 0 0 0 -0.49023,0.25 42.678569,42.678569 0 0 0 -0.48633,0.25391 42.678569,42.678569 0 0 0 -0.48242,0.26171 42.678569,42.678569 0 0 0 -0.48047,0.26758 42.678569,42.678569 0 0 0 -0.47656,0.27344 42.678569,42.678569 0 0 0 -0.47266,0.28125 42.678569,42.678569 0 0 0 -0.46875,0.28516 42.678569,42.678569 0 0 0 -0.46484,0.29101 42.678569,42.678569 0 0 0 -0.46094,0.29883 42.678569,42.678569 0 0 0 -0.45899,0.30469 42.678569,42.678569 0 0 0 -0.45312,0.30859 42.678569,42.678569 0 0 0 -0.44922,0.31641 42.678569,42.678569 0 0 0 -0.44531,0.32031 42.678569,42.678569 0 0 0 -0.44141,0.32813 42.678569,42.678569 0 0 0 -0.4375,0.33203 42.678569,42.678569 0 0 0 -0.43359,0.33789 42.678569,42.678569 0 0 0 -0.42774,0.34375 42.678569,42.678569 0 0 0 -0.42382,0.34961 42.678569,42.678569 0 0 0 -0.41993,0.35547 42.678569,42.678569 0 0 0 -0.41406,0.35937 42.678569,42.678569 0 0 0 -0.41016,0.36524 42.678569,42.678569 0 0 0 -0.40624,0.37109 42.678569,42.678569 0 0 0 -0.4004,0.375 42.678569,42.678569 0 0 0 -0.39648,0.38086 42.678569,42.678569 0 0 0 -0.39062,0.38672 42.678569,42.678569 0 0 0 -0.38477,0.39062 42.678569,42.678569 0 0 0 -0.38086,0.39649 42.678569,42.678569 0 0 0 -0.37695,0.40039 42.678569,42.678569 0 0 0 -0.36914,0.40625 42.678569,42.678569 0 0 0 -0.36524,0.41015 42.678569,42.678569 0 0 0 -0.36133,0.41407 42.678569,42.678569 0 0 0 -0.35351,0.41992 42.678569,42.678569 0 0 0 -0.34961,0.42383 42.678569,42.678569 0 0 0 -0.34375,0.42968 42.678569,42.678569 0 0 0 -0.33789,0.4336 42.678569,42.678569 0 0 0 -0.33203,0.43554 42.678569,42.678569 0 0 0 -0.32618,0.44336 42.678569,42.678569 0 0 0 -0.32226,0.44532 42.678569,42.678569 0 0 0 -0.31445,0.44921 42.678569,42.678569 0 0 0 -0.31055,0.45313 42.678569,42.678569 0 0 0 -0.30274,0.45898 42.678569,42.678569 0 0 0 -0.29882,0.46094 42.678569,42.678569 0 0 0 -0.29102,0.4668 42.678569,42.678569 0 0 0 -0.28516,0.46875 42.678569,42.678569 0 0 0 -0.28124,0.47265 42.678569,42.678569 0 0 0 -0.27344,0.47657 42.678569,42.678569 0 0 0 -0.26758,0.47851 42.678569,42.678569 0 0 0 -0.25977,0.48438 42.678569,42.678569 0 0 0 -0.10547,0.20117 48.50002,48.50002 0 0 0 32.5293,12.5293 48.50002,48.50002 0 0 0 38.66797,-19.22657 z"
         transform="scale(0.26458333)" />
    </g>
    <path
       d=""
       r="7.9375"
       cy="42.42783"
       cx="84.572174"
       id="path855"
       style="fill:none;fill-opacity:1;stroke:#000000;stroke-width:0.264583;stroke-miterlimit:2.2;stroke-opacity:1;paint-order:markers fill stroke" />
    <g
       id="g893">
      <g
         id="g887"
         transform="translate(2.6458323,2.6458322)">
        <circle
           r="26.325953"
           cy="26.458334"
           cx="26.458334"
           id="path837"
           style="fill:#6392cf;fill-opacity:1;stroke:#6392cf;stroke-width:0.26476;stroke-miterlimit:2.2;stroke-opacity:1;paint-order:markers fill stroke" />
        <path
           transform="matrix(0.27603945,0,0,0.27603945,-54.651431,7.615456)"
           id="path874"
           style="fill:#960000;fill-opacity:1;stroke:none;stroke-width:1.14118;stroke-miterlimit:2.2;stroke-opacity:1;paint-order:markers fill stroke"
           d="m 277.75781,-16.429688 a 57.262624,57.262624 0 0 0 -57.04492,57.265626 57.262624,57.262624 0 0 0 9.68164,31.851562 28.176823,28.176823 0 0 0 -7.08594,18.685547 28.176823,28.176823 0 0 0 28.17774,28.175783 28.176823,28.176823 0 0 0 5.08984,-0.46485 48.50002,48.50002 0 0 0 14.75195,25.17188 42.678569,42.678569 0 0 1 0.10547,-0.20117 42.678569,42.678569 0 0 1 0.25977,-0.48438 42.678569,42.678569 0 0 1 0.26758,-0.47851 42.678569,42.678569 0 0 1 0.27344,-0.47657 42.678569,42.678569 0 0 1 0.28124,-0.47265 42.678569,42.678569 0 0 1 0.28516,-0.46875 42.678569,42.678569 0 0 1 0.29102,-0.4668 42.678569,42.678569 0 0 1 0.29882,-0.46094 42.678569,42.678569 0 0 1 0.30274,-0.45898 42.678569,42.678569 0 0 1 0.31055,-0.45313 42.678569,42.678569 0 0 1 0.31445,-0.44921 42.678569,42.678569 0 0 1 0.32226,-0.44532 42.678569,42.678569 0 0 1 0.32618,-0.44336 42.678569,42.678569 0 0 1 0.33203,-0.43554 42.678569,42.678569 0 0 1 0.33789,-0.4336 42.678569,42.678569 0 0 1 0.34375,-0.42968 42.678569,42.678569 0 0 1 0.34961,-0.42383 42.678569,42.678569 0 0 1 0.35351,-0.41992 42.678569,42.678569 0 0 1 0.36133,-0.41407 42.678569,42.678569 0 0 1 0.36524,-0.41015 42.678569,42.678569 0 0 1 0.36914,-0.40625 42.678569,42.678569 0 0 1 0.37695,-0.40039 42.678569,42.678569 0 0 1 0.38086,-0.39649 42.678569,42.678569 0 0 1 0.38477,-0.39062 42.678569,42.678569 0 0 1 0.39062,-0.38672 42.678569,42.678569 0 0 1 0.39648,-0.38086 42.678569,42.678569 0 0 1 0.4004,-0.375 42.678569,42.678569 0 0 1 0.40624,-0.37109 42.678569,42.678569 0 0 1 0.41016,-0.36524 42.678569,42.678569 0 0 1 0.41406,-0.35937 42.678569,42.678569 0 0 1 0.41993,-0.35547 42.678569,42.678569 0 0 1 0.42382,-0.34961 42.678569,42.678569 0 0 1 0.42774,-0.34375 42.678569,42.678569 0 0 1 0.43359,-0.33789 42.678569,42.678569 0 0 1 0.4375,-0.33203 42.678569,42.678569 0 0 1 0.44141,-0.32813 42.678569,42.678569 0 0 1 0.44531,-0.32031 42.678569,42.678569 0 0 1 0.44922,-0.31641 42.678569,42.678569 0 0 1 0.45312,-0.30859 42.678569,42.678569 0 0 1 0.45899,-0.30469 42.678569,42.678569 0 0 1 0.46094,-0.29883 42.678569,42.678569 0 0 1 0.46484,-0.29101 42.678569,42.678569 0 0 1 0.46875,-0.28516 42.678569,42.678569 0 0 1 0.47266,-0.28125 42.678569,42.678569 0 0 1 0.47656,-0.27344 42.678569,42.678569 0 0 1 0.48047,-0.26758 42.678569,42.678569 0 0 1 0.48242,-0.26171 42.678569,42.678569 0 0 1 0.48633,-0.25391 42.678569,42.678569 0 0 1 0.49023,-0.25 42.678569,42.678569 0 0 1 0.49219,-0.24219 42.678569,42.678569 0 0 1 0.49609,-0.23633 42.678569,42.678569 0 0 1 0.5,-0.23046 42.678569,42.678569 0 0 1 0.50196,-0.22266 42.678569,42.678569 0 0 1 0.5039,-0.2168 42.678569,42.678569 0 0 1 0.50781,-0.21094 42.678569,42.678569 0 0 1 0.50977,-0.20312 42.678569,42.678569 0 0 1 0.51367,-0.19727 42.678569,42.678569 0 0 1 0.51563,-0.1914 42.678569,42.678569 0 0 1 0.51758,-0.1836 42.678569,42.678569 0 0 1 0.51953,-0.17773 42.678569,42.678569 0 0 1 0.52148,-0.16992 42.678569,42.678569 0 0 1 0.52539,-0.16406 42.678569,42.678569 0 0 1 0.52539,-0.15821 42.678569,42.678569 0 0 1 0.5293,-0.15039 42.678569,42.678569 0 0 1 0.5293,-0.14258 42.678569,42.678569 0 0 1 0.5332,-0.13672 42.678569,42.678569 0 0 1 0.5332,-0.1289 42.678569,42.678569 0 0 1 0.53516,-0.12305 42.678569,42.678569 0 0 1 0.53711,-0.11719 42.678569,42.678569 0 0 1 0.53906,-0.10937 42.678569,42.678569 0 0 1 0.53906,-0.10156 42.678569,42.678569 0 0 1 0.54102,-0.0957 42.678569,42.678569 0 0 1 0.54297,-0.0879 42.678569,42.678569 0 0 1 0.54297,-0.082 42.678569,42.678569 0 0 1 0.54297,-0.0742 42.678569,42.678569 0 0 1 0.54687,-0.0664 42.678569,42.678569 0 0 1 0.54492,-0.0606 42.678569,42.678569 0 0 1 0.54688,-0.0527 42.678569,42.678569 0 0 1 0.54687,-0.0469 42.678569,42.678569 0 0 1 0.54883,-0.0391 42.678569,42.678569 0 0 1 0.54883,-0.0312 42.678569,42.678569 0 0 1 0.54883,-0.0254 42.678569,42.678569 0 0 1 0.54882,-0.0176 42.678569,42.678569 0 0 1 0.54883,-0.0117 42.678569,42.678569 0 0 1 0.54883,-0.004 42.678569,42.678569 0 0 1 0.0195,0 42.678569,42.678569 0 0 1 0.54883,0.004 42.678569,42.678569 0 0 1 0.54883,0.0117 42.678569,42.678569 0 0 1 0.54883,0.0176 42.678569,42.678569 0 0 1 0.54882,0.0234 42.678569,42.678569 0 0 1 0.54883,0.0332 42.678569,42.678569 0 0 1 0.54883,0.0391 42.678569,42.678569 0 0 1 0.54688,0.0449 42.678569,42.678569 0 0 1 0.54687,0.0527 42.678569,42.678569 0 0 1 0.54688,0.0605 42.678569,42.678569 0 0 1 0.54492,0.0664 42.678569,42.678569 0 0 1 0.54297,0.0742 42.678569,42.678569 0 0 1 0.54492,0.082 42.678569,42.678569 0 0 1 0.54101,0.0879 42.678569,42.678569 0 0 1 0.54102,0.0937 42.678569,42.678569 0 0 1 0.54102,0.10156 42.678569,42.678569 0 0 1 0.5371,0.10938 42.678569,42.678569 0 0 1 0.53711,0.11523 42.678569,42.678569 0 0 1 0.53516,0.12305 42.678569,42.678569 0 0 1 0.53516,0.13086 42.678569,42.678569 0 0 1 0.53125,0.13672 42.678569,42.678569 0 0 1 0.53125,0.14258 42.678569,42.678569 0 0 1 0.52734,0.15039 42.678569,42.678569 0 0 1 0.52734,0.15625 42.678569,42.678569 0 0 1 0.52344,0.16406 42.678569,42.678569 0 0 1 0.52344,0.16992 42.678569,42.678569 0 0 1 0.51953,0.17774 42.678569,42.678569 0 0 1 0.51758,0.18359 42.678569,42.678569 0 0 1 0.51562,0.18945 42.678569,42.678569 0 0 1 0.51172,0.19727 42.678569,42.678569 0 0 1 0.51172,0.20312 42.678569,42.678569 0 0 1 0.50781,0.21094 42.678569,42.678569 0 0 1 0.50391,0.2168 42.678569,42.678569 0 0 1 0.50195,0.22265 42.678569,42.678569 0 0 1 0.5,0.23047 42.678569,42.678569 0 0 1 0.4961,0.23633 42.678569,42.678569 0 0 1 0.49218,0.24219 42.678569,42.678569 0 0 1 0.49024,0.24804 42.678569,42.678569 0 0 1 0.48633,0.25586 42.678569,42.678569 0 0 1 0.48242,0.25977 42.678569,42.678569 0 0 1 0.48047,0.26758 42.678569,42.678569 0 0 1 0.47656,0.27344 42.678569,42.678569 0 0 1 0.47266,0.28124 42.678569,42.678569 0 0 1 0.46875,0.28516 42.678569,42.678569 0 0 1 0.46484,0.29102 42.678569,42.678569 0 0 1 0.46289,0.29882 42.678569,42.678569 0 0 1 0.45703,0.30274 42.678569,42.678569 0 0 1 0.45508,0.31055 42.678569,42.678569 0 0 1 0.44922,0.31445 42.678569,42.678569 0 0 1 0.44531,0.32226 42.678569,42.678569 0 0 1 0.44141,0.32618 42.678569,42.678569 0 0 1 0.4375,0.33203 42.678569,42.678569 0 0 1 0.43359,0.33789 42.678569,42.678569 0 0 1 0.42773,0.34375 42.678569,42.678569 0 0 1 0.42383,0.34961 42.678569,42.678569 0 0 1 0.41993,0.35351 42.678569,42.678569 0 0 1 0.41601,0.36133 42.678569,42.678569 0 0 1 0.41016,0.36524 42.678569,42.678569 0 0 1 0.40625,0.36914 42.678569,42.678569 0 0 1 0.40039,0.37695 42.678569,42.678569 0 0 1 0.39648,0.38086 42.678569,42.678569 0 0 1 0.39063,0.38477 42.678569,42.678569 0 0 1 0.38476,0.39062 42.678569,42.678569 0 0 1 0.38086,0.39648 42.678569,42.678569 0 0 1 0.37696,0.4004 42.678569,42.678569 0 0 1 0.37109,0.40624 42.678569,42.678569 0 0 1 0.36523,0.41016 42.678569,42.678569 0 0 1 0.35938,0.41406 42.678569,42.678569 0 0 1 0.35547,0.41993 42.678569,42.678569 0 0 1 0.34961,0.42382 42.678569,42.678569 0 0 1 0.30273,0.375 48.50002,48.50002 0 0 0 9.83203,-29.27343 48.50002,48.50002 0 0 0 -23.35156,-41.468754 57.262624,57.262624 0 0 0 6.23437,-25.980468 57.262624,57.262624 0 0 0 -57.26171,-57.265626 57.262624,57.262624 0 0 0 -0.22071,0 z" />
        <circle
           r="5.5279016"
           cy="17.226263"
           cx="21.591888"
           id="path881"
           style="fill:#eff3f8;fill-opacity:1;stroke:none;stroke-width:0.264583;stroke-miterlimit:2.2;stroke-opacity:1;paint-order:markers fill stroke" />
      </g>
    </g>
  </g>
</svg>
